# xmcd
#
# Track frame offsets: 
#        150
#        16800
#        37951
#        51676
#        67574
#        83250
#        101402
#        115502
#        134402
#        148427
#        162753
#        178878
#
# Disc length: 2655 seconds
#
# Revision: 0
# Processed by: cddbd v1.5.2PL0 Copyright (c) Steve Scherf et al.
# Submitted via: ExactAudioCopy v0.99pb5
#
DISCID=960a5d0c
DTITLE=2gether - Sommernatt I Froland
DYEAR=2009
DGENRE=Danseband
TTITLE0=Sommernatt I Froland (Tanz Mit Mir Corinna)
TTITLE1=Nordnorsk Sommerdag
TTITLE2=Gi Meg En Blomst
TTITLE3=Lady Rock'n'Roll
TTITLE4=Början Til Slutet
TTITLE5=Varm Hånd
TTITLE6=Kjempedeilig Innevær
TTITLE7=Velkommen Til Vår Verden
TTITLE8=Visst Kan Man Elske Dypt På Avstand
TTITLE9=Jeg Drømmer Om Deg
TTITLE10=Så Lenge Stjerner Finns
TTITLE11=Vinden Hvisker
EXTD=
EXTT0=
EXTT1=
EXTT2=
EXTT3=
EXTT4=
EXTT5=
EXTT6=
EXTT7=
EXTT8=
EXTT9=
EXTT10=
EXTT11=
PLAYORDER=
